<?xml version="1.0" encoding="UTF-8"?>
<!DOCTYPE svg PUBLIC "-//W3C//DTD SVG 1.1//EN" "http://www.w3.org/Graphics/SVG/1.1/DTD/svg11.dtd">
<svg version="1.1" xmlns="http://www.w3.org/2000/svg" xmlns:xlink="http://www.w3.org/1999/xlink" x="0" y="0" width="780" height="420" viewBox="0, 0, 780, 420">
  <g id="Layer_1">
    <path d="M75,175 L270,175 L270,31 L75,31 z" fill="#FFFFFF"/>
    <path d="M151.654,26.734 L151.654,15.748 L153.969,15.748 L153.969,16.615 L152.668,16.615 L152.668,25.867 L153.969,25.867 L153.969,26.734 z M155.522,25 L155.522,16.328 L157.772,16.328 Q159.072,16.328 159.767,16.82 Q160.461,17.312 160.461,18.238 Q160.461,19.815 158.68,20.482 Q160.807,21.133 160.807,22.832 Q160.807,23.887 160.104,24.443 Q159.401,25 158.076,25 z M156.74,24.08 L156.992,24.08 Q158.346,24.08 158.744,23.91 Q159.506,23.588 159.506,22.715 Q159.506,21.941 158.815,21.429 Q158.123,20.916 157.086,20.916 L156.74,20.916 z M156.74,20.137 L157.133,20.137 Q158.117,20.137 158.659,19.715 Q159.201,19.293 159.201,18.525 Q159.201,17.248 157.221,17.248 L156.74,17.248 z M162.459,25 L162.459,18.637 L163.613,18.637 L163.613,19.832 Q164.299,18.496 165.606,18.496 Q165.781,18.496 165.975,18.525 L165.975,19.604 Q165.676,19.504 165.447,19.504 Q164.352,19.504 163.613,20.805 L163.613,25 z M169.86,25.146 Q168.494,25.146 167.68,24.241 Q166.865,23.336 166.865,21.818 Q166.865,20.283 167.683,19.39 Q168.5,18.496 169.901,18.496 Q171.301,18.496 172.118,19.39 Q172.936,20.283 172.936,21.807 Q172.936,23.365 172.115,24.256 Q171.295,25.146 169.86,25.146 z M169.877,24.279 Q171.711,24.279 171.711,21.807 Q171.711,19.363 169.901,19.363 Q168.096,19.363 168.096,21.818 Q168.096,24.279 169.877,24.279 z M175.479,25 L173.656,18.637 L174.787,18.637 L176.182,23.565 L177.688,18.637 L178.842,18.637 L180.16,23.565 L181.76,18.637 L182.75,18.637 L180.676,25 L179.516,25 L178.168,20.072 L176.645,25 z M183.986,25 L183.986,18.637 L185.141,18.637 L185.141,19.832 Q186.055,18.496 187.379,18.496 Q188.205,18.496 188.697,19.021 Q189.19,19.545 189.19,20.43 L189.19,25 L188.035,25 L188.035,20.805 Q188.035,20.096 187.827,19.794 Q187.619,19.492 187.139,19.492 Q186.078,19.492 185.141,20.881 L185.141,25 z M193.027,26.734 L193.027,15.748 L190.713,15.748 L190.713,16.615 L192.014,16.615 L192.014,25.867 L190.713,25.867 L190.713,26.734 z" fill="#000000"/>
    <path d="M168.6,175 L168.6,174.712 L166.65,174.712 L166.65,175 z M172.5,175 L172.5,174.712 L170.55,174.712 L170.55,175 z M174.45,175 L174.45,173.56 L172.5,173.56 L172.5,175 z M176.4,175 L176.4,173.272 L174.45,173.272 L174.45,175 z M178.35,175 L178.35,171.976 L176.4,171.976 L176.4,175 z M180.3,175 L180.3,169.96 L178.35,169.96 L178.35,175 z M182.25,175 L182.25,164.2 L180.3,164.2 L180.3,175 z M184.2,175 L184.2,160.888 L182.25,160.888 L182.25,175 z M186.15,175 L186.15,159.304 L184.2,159.304 L184.2,175 z M188.1,175 L188.1,152.392 L186.15,152.392 L186.15,175 z M190.05,175 L190.05,123.16 L188.1,123.16 L188.1,175 z M192,175 L192,129.208 L190.05,129.208 L190.05,175 z M193.95,175 L193.95,115.816 L192,115.816 L192,175 z M195.9,175 L195.9,101.272 L193.95,101.272 L193.95,175 z M197.85,175 L197.85,55.624 L195.9,55.624 L195.9,175 z M199.8,175 L199.8,85.288 L197.85,85.288 L197.85,175 z M201.75,175 L201.75,83.848 L199.8,83.848 L199.8,175 z M203.7,175 L203.7,82.552 L201.75,82.552 L201.75,175 z M205.65,175 L205.65,34.312 L203.7,34.312 L203.7,175 z M207.6,175 L207.6,88.024 L205.65,88.024 L205.65,175 z M209.55,175 L209.55,93.784 L207.6,93.784 L207.6,175 z M211.5,175 L211.5,97.384 L209.55,97.384 L209.55,175 z M213.45,175 L213.45,81.544 L211.5,81.544 L211.5,175 z M215.4,175 L215.4,114.232 L213.45,114.232 L213.45,175 z M217.35,175 L217.35,125.896 L215.4,125.896 L215.4,175 z M219.3,175 L219.3,138.424 L217.35,138.424 L217.35,175 z M221.25,175 L221.25,146.488 L219.3,146.488 L219.3,175 z M223.2,175 L223.2,136.552 L221.25,136.552 L221.25,175 z M225.15,175 L225.15,162.328 L223.2,162.328 L223.2,175 z M227.1,175 L227.1,163.48 L225.15,163.48 L225.15,175 z M229.05,175 L229.05,165.352 L227.1,165.352 L227.1,175 z M231,175 L231,169.096 L229.05,169.096 L229.05,175 z M232.95,175 L232.95,171.688 L231,171.688 L231,175 z M234.9,175 L234.9,172.12 L232.95,172.12 L232.95,175 z M236.85,175 L236.85,174.28 L234.9,174.28 L234.9,175 z M238.8,175 L238.8,174.712 L236.85,174.712 L236.85,175 z M240.75,175 L240.75,174.28 L238.8,174.28 L238.8,175 z M242.7,175 L242.7,174.712 L240.75,174.712 L240.75,175 z M244.65,175 L244.65,174.856 L242.7,174.856 L242.7,175 z M246.6,175 L246.6,174.712 L244.65,174.712 L244.65,175 z" fill="#C95C00"/>
    <path d="M211.674,175 L211.674,31" fill-opacity="0" stroke="#007979" stroke-width="1" stroke-linejoin="round"/>
    <g>
      <path d="M75,175 L270,175" fill-opacity="0" stroke="#444444" stroke-width="0.5" stroke-linejoin="round"/>
      <path d="M75,31 L270,31" fill-opacity="0" stroke="#444444" stroke-width="0.5" stroke-linejoin="round"/>
      <path d="M75,175 L75,173.05" fill-opacity="0" stroke="#444444" stroke-width="0.5" stroke-linejoin="round"/>
      <path d="M172.5,175 L172.5,173.05" fill-opacity="0" stroke="#444444" stroke-width="0.5" stroke-linejoin="round"/>
      <path d="M270,175 L270,173.05" fill-opacity="0" stroke="#444444" stroke-width="0.5" stroke-linejoin="round"/>
      <path d="M75,31 L75,32.95" fill-opacity="0" stroke="#444444" stroke-width="0.5" stroke-linejoin="round"/>
      <path d="M172.5,31 L172.5,32.95" fill-opacity="0" stroke="#444444" stroke-width="0.5" stroke-linejoin="round"/>
      <path d="M270,31 L270,32.95" fill-opacity="0" stroke="#444444" stroke-width="0.5" stroke-linejoin="round"/>
    </g>
    <path d="M74.762,191.617 Q73.42,191.617 72.591,190.354 Q71.762,189.091 71.762,187.058 Q71.762,185.007 72.597,183.759 Q73.432,182.511 74.797,182.511 Q76.162,182.511 76.997,183.759 Q77.832,185.007 77.832,187.041 Q77.832,189.127 76.997,190.372 Q76.162,191.617 74.762,191.617 z M74.773,190.75 Q76.607,190.75 76.607,187.023 Q76.607,183.378 74.797,183.378 Q72.992,183.378 72.992,187.058 Q72.992,190.75 74.773,190.75 z" fill="#444444"/>
    <path d="M166.762,191.617 Q165.42,191.617 164.591,190.354 Q163.762,189.091 163.762,187.058 Q163.762,185.007 164.597,183.759 Q165.432,182.511 166.797,182.511 Q168.162,182.511 168.997,183.759 Q169.832,185.007 169.832,187.041 Q169.832,189.127 168.997,190.372 Q168.162,191.617 166.762,191.617 z M166.773,190.75 Q168.607,190.75 168.607,187.023 Q168.607,183.378 166.797,183.378 Q164.992,183.378 164.992,187.058 Q164.992,190.75 166.773,190.75 z M171.76,191.4 L171.76,189.953 L173.207,189.953 L173.207,191.4 z M175.844,191.435 L175.844,190.404 Q176.705,190.75 177.484,190.75 Q178.34,190.75 178.829,190.246 Q179.318,189.742 179.318,188.857 Q179.318,186.906 176.629,186.906 Q176.324,186.906 175.99,186.947 L175.99,182.728 L180.379,182.728 L180.379,183.736 L177.004,183.736 L177.004,186.021 Q178.674,186.021 179.611,186.789 Q180.549,187.556 180.549,188.916 Q180.549,190.181 179.696,190.899 Q178.844,191.617 177.332,191.617 Q176.676,191.617 175.844,191.435 z" fill="#444444"/>
    <path d="M267.805,191.4 L267.805,190.533 L269.539,190.533 L269.539,183.689 L267.805,184.123 L267.805,183.232 L270.699,182.511 L270.699,190.533 L272.434,190.533 L272.434,191.4 z" fill="#444444"/>
    <g>
      <path d="M75,175 L75,31" fill-opacity="0" stroke="#444444" stroke-width="0.5" stroke-linejoin="round"/>
      <path d="M270,175 L270,31" fill-opacity="0" stroke="#444444" stroke-width="0.5" stroke-linejoin="round"/>
    </g>
    <path d="M331,175 L525,175 L525,31 L331,31 z" fill="#FFFFFF"/>
    <path d="M382.655,26.734 L382.655,15.748 L384.969,15.748 L384.969,16.615 L383.668,16.615 L383.668,25.867 L384.969,25.867 L384.969,26.734 z M386.522,25 L386.522,16.328 L391.368,16.328 L391.368,17.248 L387.752,17.248 L387.752,20.154 L390.788,20.154 L390.788,21.062 L387.752,21.062 L387.752,25 z M392.991,25 L392.991,18.637 L394.145,18.637 L394.145,19.832 Q394.831,18.496 396.137,18.496 Q396.313,18.496 396.506,18.525 L396.506,19.604 Q396.207,19.504 395.979,19.504 Q394.883,19.504 394.145,20.805 L394.145,25 z M397.901,25 L397.901,18.637 L399.055,18.637 L399.055,25 z M397.901,17.482 L397.901,16.328 L399.055,16.328 L399.055,17.482 z M406.034,24.795 Q404.873,25.146 404.047,25.146 Q402.641,25.146 401.753,24.212 Q400.866,23.277 400.866,21.789 Q400.866,20.342 401.648,19.416 Q402.43,18.49 403.649,18.49 Q404.803,18.49 405.433,19.31 Q406.063,20.131 406.063,21.643 L406.057,22 L402.043,22 Q402.295,24.268 404.264,24.268 Q404.985,24.268 406.034,23.881 z M402.096,21.133 L404.903,21.133 Q404.903,19.357 403.578,19.357 Q402.248,19.357 402.096,21.133 z M412.139,25 L412.139,23.805 Q411.436,25.146 410.018,25.146 Q408.87,25.146 408.21,24.309 Q407.551,23.471 407.551,22.018 Q407.551,20.43 408.298,19.463 Q409.045,18.496 410.264,18.496 Q411.395,18.496 412.139,19.363 L412.139,15.748 L413.299,15.748 L413.299,25 z M412.139,20.154 Q411.243,19.363 410.44,19.363 Q408.782,19.363 408.782,21.9 Q408.782,24.133 410.258,24.133 Q411.219,24.133 412.139,23.084 z M415.608,25 L415.608,18.637 L416.762,18.637 L416.762,19.832 Q417.606,18.496 418.93,18.496 Q420.207,18.496 420.67,19.832 Q421.491,18.49 422.803,18.49 Q423.647,18.49 424.11,18.985 Q424.573,19.48 424.573,20.371 L424.573,25 L423.413,25 L423.413,20.553 Q423.413,19.463 422.551,19.463 Q421.655,19.463 420.67,20.734 L420.67,25 L419.51,25 L419.51,20.553 Q419.51,19.457 418.631,19.457 Q417.758,19.457 416.762,20.734 L416.762,25 z M430.092,24.191 Q429.055,25.146 428.094,25.146 Q427.303,25.146 426.782,24.651 Q426.26,24.156 426.26,23.4 Q426.26,22.357 427.136,21.798 Q428.012,21.238 429.647,21.238 L429.922,21.238 L429.922,20.471 Q429.922,19.363 428.786,19.363 Q427.871,19.363 426.811,19.926 L426.811,18.971 Q427.977,18.496 428.996,18.496 Q430.063,18.496 430.57,18.977 Q431.077,19.457 431.077,20.471 L431.077,23.354 Q431.077,24.344 431.686,24.344 Q431.762,24.344 431.909,24.32 L431.991,24.959 Q431.598,25.146 431.123,25.146 Q430.315,25.146 430.092,24.191 z M429.922,23.565 L429.922,21.918 L429.536,21.906 Q428.586,21.906 428,22.267 Q427.414,22.627 427.414,23.213 Q427.414,23.629 427.707,23.916 Q428,24.203 428.422,24.203 Q429.143,24.203 429.922,23.565 z M433.438,25 L433.438,18.637 L434.592,18.637 L434.592,19.832 Q435.506,18.496 436.831,18.496 Q437.657,18.496 438.149,19.021 Q438.641,19.545 438.641,20.43 L438.641,25 L437.487,25 L437.487,20.805 Q437.487,20.096 437.279,19.794 Q437.071,19.492 436.59,19.492 Q435.53,19.492 434.592,20.881 L434.592,25 z M440.727,25 L440.727,23.986 Q441.231,22.809 442.766,21.42 L443.428,20.828 Q444.706,19.674 444.706,18.537 Q444.706,17.81 444.269,17.395 Q443.832,16.979 443.071,16.979 Q442.168,16.979 440.944,17.676 L440.944,16.656 Q442.098,16.111 443.235,16.111 Q444.453,16.111 445.192,16.768 Q445.93,17.424 445.93,18.508 Q445.93,19.287 445.558,19.891 Q445.186,20.494 444.172,21.355 L443.727,21.736 Q442.338,22.914 442.121,23.986 L445.889,23.986 L445.889,25 z M451.081,25.217 Q449.739,25.217 448.91,23.954 Q448.081,22.691 448.081,20.658 Q448.081,18.607 448.915,17.359 Q449.75,16.111 451.116,16.111 Q452.481,16.111 453.316,17.359 Q454.151,18.607 454.151,20.641 Q454.151,22.727 453.316,23.972 Q452.481,25.217 451.081,25.217 z M451.092,24.35 Q452.926,24.35 452.926,20.623 Q452.926,16.979 451.116,16.979 Q449.311,16.979 449.311,20.658 Q449.311,24.35 451.092,24.35 z M456.711,25 L456.711,24.133 L458.446,24.133 L458.446,17.289 L456.711,17.723 L456.711,16.832 L459.606,16.111 L459.606,24.133 L461.34,24.133 L461.34,25 z M464.299,25 Q464.469,23.986 464.783,23.248 Q465.096,22.51 465.893,21.221 L468.26,17.412 L463.795,17.412 L463.795,16.328 L469.362,16.328 L469.362,17.412 Q466.028,22.328 465.629,25 z M472.831,26.734 L472.831,15.748 L470.516,15.748 L470.516,16.615 L471.817,16.615 L471.817,25.867 L470.516,25.867 L470.516,26.734 z" fill="#000000"/>
    <path d="M398.9,174.856 L396.96,174.856 L396.96,175 L398.9,175 L400.84,175 L402.78,175 L404.72,175 L406.66,175 L406.66,174.856 L404.72,174.856 L402.78,174.856 L400.84,174.856 z M408.6,175 L408.6,174.424 L406.66,174.424 L406.66,175 z M410.54,173.56 L408.6,173.56 L408.6,175 L410.54,175 L412.48,175 L412.48,173.56 z M414.42,175 L414.42,171.4 L412.48,171.4 L412.48,175 z M416.36,175 L416.36,168.376 L414.42,168.376 L414.42,175 z M418.3,175 L418.3,166.792 L416.36,166.792 L416.36,175 z M420.24,175 L420.24,160.744 L418.3,160.744 L418.3,175 z M422.18,175 L422.18,154.696 L420.24,154.696 L420.24,175 z M424.12,175 L424.12,145.624 L422.18,145.624 L422.18,175 z M426.06,175 L426.06,136.84 L424.12,136.84 L424.12,175 z M429.94,175 L429.94,127.768 L428,127.768 L428,175 z M431.88,175 L431.88,115.672 L429.94,115.672 L429.94,175 z M433.82,175 L433.82,98.824 L431.88,98.824 L431.88,175 z M435.76,175 L435.76,90.904 L433.82,90.904 L433.82,175 z M437.7,175 L437.7,77.08 L435.76,77.08 L435.76,175 z M439.64,175 L439.64,63.112 L437.7,63.112 L437.7,175 z M441.58,175 L441.58,69.448 L439.64,69.448 L439.64,175 z M443.52,175 L443.52,58.36 L441.58,58.36 L441.58,175 z M445.46,175 L445.46,72.616 L443.52,72.616 L443.52,175 z M447.4,175 L447.4,77.368 L445.46,77.368 L445.46,175 z M449.34,175 L449.34,89.176 L447.4,89.176 L447.4,175 z M451.28,175 L451.28,105.016 L449.34,105.016 L449.34,175 z M453.22,175 L453.22,110.92 L451.28,110.92 L451.28,175 z M455.16,175 L455.16,125.176 L453.22,125.176 L453.22,175 z M457.1,175 L457.1,137.416 L455.16,137.416 L455.16,175 z M459.04,175 L459.04,147.496 L457.1,147.496 L457.1,175 z M460.98,175 L460.98,152.536 L459.04,152.536 L459.04,175 z M462.92,175 L462.92,158.44 L460.98,158.44 L460.98,175 z M464.86,175 L464.86,161.176 L462.92,161.176 L462.92,175 z M466.8,175 L466.8,167.656 L464.86,167.656 L464.86,175 z M468.74,175 L468.74,167.8 L466.8,167.8 L466.8,175 z M470.68,171.256 L468.74,171.256 L468.74,175 L470.68,175 L472.62,175 L472.62,171.256 z M474.56,175 L474.56,173.128 L472.62,173.128 L472.62,175 z M478.44,175 L478.44,172.84 L476.5,172.84 L476.5,175 z M480.38,175 L480.38,174.136 L478.44,174.136 L478.44,175 z M482.32,175 L482.32,173.848 L480.38,173.848 L480.38,175 z M484.26,175 L484.26,174.568 L482.32,174.568 L482.32,175 z M486.2,175 L486.2,174.856 L484.26,174.856 L484.26,175 z M490.08,175 L490.08,174.856 L488.14,174.856 L488.14,175 z" fill="#C95C00"/>
    <path d="M423.958,175 L423.958,31" fill-opacity="0" stroke="#007979" stroke-width="1" stroke-linejoin="round"/>
    <g>
      <path d="M331,175 L525,175" fill-opacity="0" stroke="#444444" stroke-width="0.5" stroke-linejoin="round"/>
      <path d="M331,31 L525,31" fill-opacity="0" stroke="#444444" stroke-width="0.5" stroke-linejoin="round"/>
      <path d="M331,175 L331,173.06" fill-opacity="0" stroke="#444444" stroke-width="0.5" stroke-linejoin="round"/>
      <path d="M428,175 L428,173.06" fill-opacity="0" stroke="#444444" stroke-width="0.5" stroke-linejoin="round"/>
      <path d="M525,175 L525,173.06" fill-opacity="0" stroke="#444444" stroke-width="0.5" stroke-linejoin="round"/>
      <path d="M331,31 L331,32.94" fill-opacity="0" stroke="#444444" stroke-width="0.5" stroke-linejoin="round"/>
      <path d="M428,31 L428,32.94" fill-opacity="0" stroke="#444444" stroke-width="0.5" stroke-linejoin="round"/>
      <path d="M525,31 L525,32.94" fill-opacity="0" stroke="#444444" stroke-width="0.5" stroke-linejoin="round"/>
    </g>
    <path d="M330.762,191.617 Q329.42,191.617 328.591,190.354 Q327.762,189.091 327.762,187.058 Q327.762,185.007 328.597,183.759 Q329.432,182.511 330.797,182.511 Q332.162,182.511 332.997,183.759 Q333.832,185.007 333.832,187.041 Q333.832,189.127 332.997,190.372 Q332.162,191.617 330.762,191.617 z M330.773,190.75 Q332.607,190.75 332.607,187.023 Q332.607,183.378 330.797,183.378 Q328.992,183.378 328.992,187.058 Q328.992,190.75 330.773,190.75 z" fill="#444444"/>
    <path d="M422.262,191.617 Q420.92,191.617 420.091,190.354 Q419.262,189.091 419.262,187.058 Q419.262,185.007 420.097,183.759 Q420.932,182.511 422.297,182.511 Q423.662,182.511 424.497,183.759 Q425.332,185.007 425.332,187.041 Q425.332,189.127 424.497,190.372 Q423.662,191.617 422.262,191.617 z M422.273,190.75 Q424.107,190.75 424.107,187.023 Q424.107,183.378 422.297,183.378 Q420.492,183.378 420.492,187.058 Q420.492,190.75 422.273,190.75 z M427.26,191.4 L427.26,189.953 L428.707,189.953 L428.707,191.4 z M431.344,191.435 L431.344,190.404 Q432.205,190.75 432.984,190.75 Q433.84,190.75 434.329,190.246 Q434.818,189.742 434.818,188.857 Q434.818,186.906 432.129,186.906 Q431.824,186.906 431.49,186.947 L431.49,182.728 L435.879,182.728 L435.879,183.736 L432.504,183.736 L432.504,186.021 Q434.174,186.021 435.111,186.789 Q436.049,187.556 436.049,188.916 Q436.049,190.181 435.196,190.899 Q434.344,191.617 432.832,191.617 Q432.176,191.617 431.344,191.435 z" fill="#444444"/>
    <path d="M522.805,191.4 L522.805,190.533 L524.539,190.533 L524.539,183.689 L522.805,184.123 L522.805,183.232 L525.699,182.511 L525.699,190.533 L527.434,190.533 L527.434,191.4 z" fill="#444444"/>
    <g>
      <path d="M331,175 L331,31" fill-opacity="0" stroke="#444444" stroke-width="0.5" stroke-linejoin="round"/>
      <path d="M525,175 L525,31" fill-opacity="0" stroke="#444444" stroke-width="0.5" stroke-linejoin="round"/>
    </g>
    <path d="M75,374 L270,374 L270,231 L75,231 z" fill="#FFFFFF"/>
    <path d="M147.654,226.734 L147.654,215.748 L149.969,215.748 L149.969,216.615 L148.668,216.615 L148.668,225.867 L149.969,225.867 L149.969,226.734 z M151.522,225 L151.522,216.328 L152.752,216.328 L152.752,224.08 L156.654,224.08 L156.654,225 z M160.445,225.146 Q159.08,225.146 158.266,224.241 Q157.451,223.336 157.451,221.818 Q157.451,220.283 158.269,219.39 Q159.086,218.496 160.486,218.496 Q161.887,218.496 162.704,219.39 Q163.522,220.283 163.522,221.807 Q163.522,223.365 162.701,224.256 Q161.881,225.146 160.445,225.146 z M160.463,224.279 Q162.297,224.279 162.297,221.807 Q162.297,219.363 160.486,219.363 Q158.682,219.363 158.682,221.818 Q158.682,224.279 160.463,224.279 z M165.168,225 L165.168,223.986 Q165.672,222.809 167.207,221.42 L167.869,220.828 Q169.147,219.674 169.147,218.537 Q169.147,217.811 168.71,217.395 Q168.274,216.979 167.512,216.979 Q166.61,216.979 165.385,217.676 L165.385,216.656 Q166.539,216.111 167.676,216.111 Q168.895,216.111 169.633,216.768 Q170.371,217.424 170.371,218.508 Q170.371,219.287 169.999,219.891 Q169.627,220.494 168.613,221.355 L168.168,221.736 Q166.779,222.914 166.563,223.986 L170.33,223.986 L170.33,225 z M175.522,225.217 Q174.18,225.217 173.351,223.954 Q172.522,222.691 172.522,220.658 Q172.522,218.607 173.357,217.359 Q174.192,216.111 175.557,216.111 Q176.922,216.111 177.757,217.359 Q178.592,218.607 178.592,220.641 Q178.592,222.727 177.757,223.972 Q176.922,225.217 175.522,225.217 z M175.533,224.35 Q177.367,224.35 177.367,220.623 Q177.367,216.979 175.557,216.979 Q173.752,216.979 173.752,220.658 Q173.752,224.35 175.533,224.35 z M181.152,225 L181.152,224.133 L182.887,224.133 L182.887,217.289 L181.152,217.723 L181.152,216.832 L184.047,216.111 L184.047,224.133 L185.781,224.133 L185.781,225 z M188.74,225 Q188.91,223.986 189.224,223.248 Q189.537,222.51 190.334,221.221 L192.701,217.412 L188.236,217.412 L188.236,216.328 L193.803,216.328 L193.803,217.412 Q190.469,222.328 190.07,225 z M197.272,226.734 L197.272,215.748 L194.957,215.748 L194.957,216.615 L196.258,216.615 L196.258,225.867 L194.957,225.867 L194.957,226.734 z" fill="#000000"/>
    <path d="M80.85,374 L80.85,373.333 L75,373.333 L75,374 z M110.1,374 L110.1,367.47 L104.25,367.47 L104.25,374 z M145.2,374 L145.2,343.303 L139.35,343.303 L139.35,374 z M174.45,374 L174.45,292.824 L168.6,292.824 L168.6,374 z M209.55,374 L209.55,236.291 L203.7,236.291 L203.7,374 z M238.8,374 L238.8,231.381 L232.95,231.381 L232.95,374 z M270,374 L270,296.732 L268.05,296.732 L268.05,374 z" fill="#C95C00"/>
    <path d="M140,374 L140,231" fill-opacity="0" stroke="#007979" stroke-width="1" stroke-linejoin="round"/>
    <g>
      <path d="M75,374 L270,374" fill-opacity="0" stroke="#444444" stroke-width="0.5" stroke-linejoin="round"/>
      <path d="M75,231 L270,231" fill-opacity="0" stroke="#444444" stroke-width="0.5" stroke-linejoin="round"/>
      <path d="M75,374 L75,372.05" fill-opacity="0" stroke="#444444" stroke-width="0.5" stroke-linejoin="round"/>
      <path d="M172.5,374 L172.5,372.05" fill-opacity="0" stroke="#444444" stroke-width="0.5" stroke-linejoin="round"/>
      <path d="M270,374 L270,372.05" fill-opacity="0" stroke="#444444" stroke-width="0.5" stroke-linejoin="round"/>
      <path d="M75,231 L75,232.95" fill-opacity="0" stroke="#444444" stroke-width="0.5" stroke-linejoin="round"/>
      <path d="M172.5,231 L172.5,232.95" fill-opacity="0" stroke="#444444" stroke-width="0.5" stroke-linejoin="round"/>
      <path d="M270,231 L270,232.95" fill-opacity="0" stroke="#444444" stroke-width="0.5" stroke-linejoin="round"/>
    </g>
    <path d="M74.762,390.617 Q73.42,390.617 72.591,389.354 Q71.762,388.091 71.762,386.058 Q71.762,384.007 72.597,382.759 Q73.432,381.511 74.797,381.511 Q76.162,381.511 76.997,382.759 Q77.832,384.007 77.832,386.041 Q77.832,388.127 76.997,389.372 Q76.162,390.617 74.762,390.617 z M74.773,389.75 Q76.607,389.75 76.607,386.023 Q76.607,382.379 74.797,382.379 Q72.992,382.379 72.992,386.058 Q72.992,389.75 74.773,389.75 z" fill="#444444"/>
    <path d="M166.762,390.617 Q165.42,390.617 164.591,389.354 Q163.762,388.091 163.762,386.058 Q163.762,384.007 164.597,382.759 Q165.432,381.511 166.797,381.511 Q168.162,381.511 168.997,382.759 Q169.832,384.007 169.832,386.041 Q169.832,388.127 168.997,389.372 Q168.162,390.617 166.762,390.617 z M166.773,389.75 Q168.607,389.75 168.607,386.023 Q168.607,382.379 166.797,382.379 Q164.992,382.379 164.992,386.058 Q164.992,389.75 166.773,389.75 z M171.76,390.4 L171.76,388.953 L173.207,388.953 L173.207,390.4 z M175.844,390.435 L175.844,389.404 Q176.705,389.75 177.484,389.75 Q178.34,389.75 178.829,389.246 Q179.318,388.742 179.318,387.857 Q179.318,385.906 176.629,385.906 Q176.324,385.906 175.99,385.947 L175.99,381.728 L180.379,381.728 L180.379,382.736 L177.004,382.736 L177.004,385.021 Q178.674,385.021 179.611,385.789 Q180.549,386.556 180.549,387.916 Q180.549,389.181 179.696,389.899 Q178.844,390.617 177.332,390.617 Q176.676,390.617 175.844,390.435 z" fill="#444444"/>
    <path d="M267.805,390.4 L267.805,389.533 L269.539,389.533 L269.539,382.689 L267.805,383.123 L267.805,382.232 L270.699,381.511 L270.699,389.533 L272.434,389.533 L272.434,390.4 z" fill="#444444"/>
    <g>
      <path d="M75,374 L75,231" fill-opacity="0" stroke="#444444" stroke-width="0.5" stroke-linejoin="round"/>
      <path d="M270,374 L270,231" fill-opacity="0" stroke="#444444" stroke-width="0.5" stroke-linejoin="round"/>
    </g>
    <path d="M331,374 L525,374 L525,231 L331,231 z" fill="#FFFFFF"/>
    <path d="M397.155,226.734 L397.155,215.748 L399.469,215.748 L399.469,216.615 L398.168,216.615 L398.168,225.867 L399.469,225.867 L399.469,226.734 z M399.996,225 L402.873,220.646 L400.137,216.328 L401.59,216.328 L403.676,219.598 L405.868,216.328 L407.028,216.328 L404.256,220.518 L407.098,225 L405.645,225 L403.442,221.561 L401.163,225 z M408.569,225 L408.569,218.637 L409.723,218.637 L409.723,225 z M408.569,217.482 L408.569,216.328 L409.723,216.328 L409.723,217.482 z M415.319,224.191 Q414.282,225.146 413.321,225.146 Q412.53,225.146 412.008,224.651 Q411.487,224.156 411.487,223.4 Q411.487,222.357 412.363,221.798 Q413.239,221.238 414.873,221.238 L415.149,221.238 L415.149,220.471 Q415.149,219.363 414.012,219.363 Q413.098,219.363 412.038,219.926 L412.038,218.971 Q413.203,218.496 414.223,218.496 Q415.289,218.496 415.796,218.977 Q416.303,219.457 416.303,220.471 L416.303,223.354 Q416.303,224.344 416.913,224.344 Q416.989,224.344 417.135,224.32 L417.217,224.959 Q416.825,225.146 416.35,225.146 Q415.541,225.146 415.319,224.191 z M415.149,223.564 L415.149,221.918 L414.762,221.906 Q413.813,221.906 413.227,222.267 Q412.641,222.627 412.641,223.213 Q412.641,223.629 412.934,223.916 Q413.227,224.203 413.649,224.203 Q414.37,224.203 415.149,223.564 z M421.155,225.146 Q419.789,225.146 418.975,224.241 Q418.161,223.336 418.161,221.818 Q418.161,220.283 418.978,219.39 Q419.795,218.496 421.196,218.496 Q422.596,218.496 423.414,219.39 Q424.231,220.283 424.231,221.807 Q424.231,223.365 423.411,224.256 Q422.59,225.146 421.155,225.146 z M421.172,224.279 Q423.006,224.279 423.006,221.807 Q423.006,219.363 421.196,219.363 Q419.391,219.363 419.391,221.818 Q419.391,224.279 421.172,224.279 z M425.877,225 L425.877,223.986 Q426.381,222.809 427.916,221.42 L428.578,220.828 Q429.856,219.674 429.856,218.537 Q429.856,217.811 429.419,217.395 Q428.983,216.979 428.221,216.979 Q427.319,216.979 426.094,217.676 L426.094,216.656 Q427.248,216.111 428.385,216.111 Q429.604,216.111 430.342,216.768 Q431.081,217.424 431.081,218.508 Q431.081,219.287 430.708,219.891 Q430.336,220.494 429.323,221.355 L428.877,221.736 Q427.489,222.914 427.272,223.986 L431.039,223.986 L431.039,225 z M436.231,225.217 Q434.889,225.217 434.06,223.954 Q433.231,222.691 433.231,220.658 Q433.231,218.607 434.066,217.359 Q434.901,216.111 436.266,216.111 Q437.631,216.111 438.466,217.359 Q439.301,218.607 439.301,220.641 Q439.301,222.727 438.466,223.972 Q437.631,225.217 436.231,225.217 z M436.243,224.35 Q438.077,224.35 438.077,220.623 Q438.077,216.979 436.266,216.979 Q434.461,216.979 434.461,220.658 Q434.461,224.35 436.243,224.35 z M441.862,225 L441.862,224.133 L443.596,224.133 L443.596,217.289 L441.862,217.723 L441.862,216.832 L444.756,216.111 L444.756,224.133 L446.491,224.133 L446.491,225 z M449.45,225 Q449.62,223.986 449.933,223.248 Q450.246,222.51 451.043,221.221 L453.411,217.412 L448.946,217.412 L448.946,216.328 L454.512,216.328 L454.512,217.412 Q451.178,222.328 450.78,225 z M457.981,226.734 L457.981,215.748 L455.666,215.748 L455.666,216.615 L456.967,216.615 L456.967,225.867 L455.666,225.867 L455.666,226.734 z" fill="#000000"/>
    <path d="M395.02,374 L395.02,373.857 L393.08,373.857 L393.08,374 z M400.84,374 L400.84,372.713 L398.9,372.713 L398.9,374 z M402.78,374 L402.78,372.284 L400.84,372.284 L400.84,374 z M406.66,374 L406.66,370.139 L404.72,370.139 L404.72,374 z M410.54,374 L410.54,367.565 L408.6,367.565 L408.6,374 z M412.48,374 L412.48,363.99 L410.54,363.99 L410.54,374 z M416.36,374 L416.36,357.555 L414.42,357.555 L414.42,374 z M418.3,374 L418.3,347.402 L416.36,347.402 L416.36,374 z M422.18,374 L422.18,328.955 L420.24,328.955 L420.24,374 z M424.12,374 L424.12,314.798 L422.18,314.798 L422.18,374 z M428,374 L428,297.781 L426.06,297.781 L426.06,374 z M429.94,374 L429.94,269.896 L428,269.896 L428,374 z M433.82,374 L433.82,246.158 L431.88,246.158 L431.88,374 z M435.76,374 L435.76,236.72 L433.82,236.72 L433.82,374 z M439.64,374 L439.64,234.289 L437.7,234.289 L437.7,374 z M441.58,374 L441.58,236.434 L439.64,236.434 L439.64,374 z M445.46,374 L445.46,245.3 L443.52,245.3 L443.52,374 z M447.4,374 L447.4,248.589 L445.46,248.589 L445.46,374 z M451.28,374 L451.28,285.912 L449.34,285.912 L449.34,374 z M455.16,374 L455.16,303.501 L453.22,303.501 L453.22,374 z M457.1,374 L457.1,326.095 L455.16,326.095 L455.16,374 z M460.98,374 L460.98,343.112 L459.04,343.112 L459.04,374 z M462.92,374 L462.92,354.266 L460.98,354.266 L460.98,374 z M466.8,374 L466.8,362.131 L464.86,362.131 L464.86,374 z M468.74,374 L468.74,366.993 L466.8,366.993 L466.8,374 z M472.62,374 L472.62,370.139 L470.68,370.139 L470.68,374 z M474.56,374 L474.56,372.713 L472.62,372.713 L472.62,374 z M478.44,374 L478.44,373.142 L476.5,373.142 L476.5,374 z M484.26,374 L484.26,373.714 L482.32,373.714 L482.32,374 z M486.2,374 L486.2,373.857 L484.26,373.857 L484.26,374 z" fill="#C95C00"/>
    <path d="M459.339,374 L459.339,231" fill-opacity="0" stroke="#007979" stroke-width="1" stroke-linejoin="round"/>
    <g>
      <path d="M331,374 L525,374" fill-opacity="0" stroke="#444444" stroke-width="0.5" stroke-linejoin="round"/>
      <path d="M331,231 L525,231" fill-opacity="0" stroke="#444444" stroke-width="0.5" stroke-linejoin="round"/>
      <path d="M331,374 L331,372.06" fill-opacity="0" stroke="#444444" stroke-width="0.5" stroke-linejoin="round"/>
      <path d="M428,374 L428,372.06" fill-opacity="0" stroke="#444444" stroke-width="0.5" stroke-linejoin="round"/>
      <path d="M525,374 L525,372.06" fill-opacity="0" stroke="#444444" stroke-width="0.5" stroke-linejoin="round"/>
      <path d="M331,231 L331,232.94" fill-opacity="0" stroke="#444444" stroke-width="0.5" stroke-linejoin="round"/>
      <path d="M428,231 L428,232.94" fill-opacity="0" stroke="#444444" stroke-width="0.5" stroke-linejoin="round"/>
      <path d="M525,231 L525,232.94" fill-opacity="0" stroke="#444444" stroke-width="0.5" stroke-linejoin="round"/>
    </g>
    <path d="M330.762,390.617 Q329.42,390.617 328.591,389.354 Q327.762,388.091 327.762,386.058 Q327.762,384.007 328.597,382.759 Q329.432,381.511 330.797,381.511 Q332.162,381.511 332.997,382.759 Q333.832,384.007 333.832,386.041 Q333.832,388.127 332.997,389.372 Q332.162,390.617 330.762,390.617 z M330.773,389.75 Q332.607,389.75 332.607,386.023 Q332.607,382.379 330.797,382.379 Q328.992,382.379 328.992,386.058 Q328.992,389.75 330.773,389.75 z" fill="#444444"/>
    <path d="M422.262,390.617 Q420.92,390.617 420.091,389.354 Q419.262,388.091 419.262,386.058 Q419.262,384.007 420.097,382.759 Q420.932,381.511 422.297,381.511 Q423.662,381.511 424.497,382.759 Q425.332,384.007 425.332,386.041 Q425.332,388.127 424.497,389.372 Q423.662,390.617 422.262,390.617 z M422.273,389.75 Q424.107,389.75 424.107,386.023 Q424.107,382.379 422.297,382.379 Q420.492,382.379 420.492,386.058 Q420.492,389.75 422.273,389.75 z M427.26,390.4 L427.26,388.953 L428.707,388.953 L428.707,390.4 z M431.344,390.435 L431.344,389.404 Q432.205,389.75 432.984,389.75 Q433.84,389.75 434.329,389.246 Q434.818,388.742 434.818,387.857 Q434.818,385.906 432.129,385.906 Q431.824,385.906 431.49,385.947 L431.49,381.728 L435.879,381.728 L435.879,382.736 L432.504,382.736 L432.504,385.021 Q434.174,385.021 435.111,385.789 Q436.049,386.556 436.049,387.916 Q436.049,389.181 435.196,389.899 Q434.344,390.617 432.832,390.617 Q432.176,390.617 431.344,390.435 z" fill="#444444"/>
    <path d="M522.805,390.4 L522.805,389.533 L524.539,389.533 L524.539,382.689 L522.805,383.123 L522.805,382.232 L525.699,381.511 L525.699,389.533 L527.434,389.533 L527.434,390.4 z" fill="#444444"/>
    <g>
      <path d="M331,374 L331,231" fill-opacity="0" stroke="#444444" stroke-width="0.5" stroke-linejoin="round"/>
      <path d="M525,374 L525,231" fill-opacity="0" stroke="#444444" stroke-width="0.5" stroke-linejoin="round"/>
    </g>
    <text transform="matrix(1, 0, 0, 1, 637.616, 367.328)">
      <tspan x="-68.136" y="2.159" font-family="HelveticaNeue" font-size="12" fill="#000000">[Xiao2017] p-value: 0.048 </tspan>
    </text>
    <text transform="matrix(1, 0, 0, 1, 629.499, 349.408)">
      <tspan x="-60.499" y="2.159" font-family="HelveticaNeue" font-size="12" fill="#000000">[Brown] p-value: 0.21 </tspan>
    </text>
    <text transform="matrix(1, 0, 0, 1, 643.305, 46.841)">
      <tspan x="-47.439" y="2.159" font-family="HelveticaNeue" font-size="12" fill="#000000">Observed Data</tspan>
    </text>
    <text transform="matrix(1, 0, 0, 1, 643.305, 69.397)">
      <tspan x="-47.439" y="2.159" font-family="HelveticaNeue" font-size="12" fill="#000000">Simulated Data</tspan>
    </text>
    <text transform="matrix(1, 0, 0, 1, 646.384, 113.086)">
      <tspan x="-50.518" y="-21.067" font-family="HelveticaNeue" font-size="11" fill="#000000">10,000 topology-</tspan>
      <tspan x="-50.518" y="-9.067" font-family="HelveticaNeue" font-size="11" fill="#000000">preserving random </tspan>
      <tspan x="-50.518" y="2.933" font-family="HelveticaNeue" font-size="11" fill="#000000">networks, random </tspan>
      <tspan x="-50.518" y="14.933" font-family="HelveticaNeue" font-size="11" fill="#000000">interaction sign, </tspan>
      <tspan x="-50.518" y="26.933" font-family="HelveticaNeue" font-size="11" fill="#000000">Prob(+) = Frac(+)</tspan>
    </text>
    <g>
      <path d="M574.549,38 L586.549,38 L586.549,50 L574.549,50 L574.549,38 z" fill="#007979"/>
      <path d="M574.549,38 L586.549,38 L586.549,50 L574.549,50 L574.549,38 z" fill-opacity="0" stroke="#007979" stroke-width="1"/>
    </g>
    <g>
      <path d="M574.549,63.397 L586.549,63.397 L586.549,75.397 L574.549,75.397 L574.549,63.397 z" fill="#C95C00"/>
      <path d="M574.549,63.397 L586.549,63.397 L586.549,75.397 L574.549,75.397 L574.549,63.397 z" fill-opacity="0" stroke="#C95C00" stroke-width="1"/>
    </g>
  </g>
</svg>
